<?xml version="1.0" standalone="no"?>
<!DOCTYPE svg PUBLIC "-//W3C//DTD SVG 20010904//EN"
 "http://www.w3.org/TR/2001/REC-SVG-20010904/DTD/svg10.dtd">
<svg version="1.0" xmlns="http://www.w3.org/2000/svg"
 width="140.000000pt" height="140.000000pt" viewBox="0 0 140.000000 140.000000"
 preserveAspectRatio="xMidYMid meet">
<metadata>
Created by potrace 1.14, written by Peter Selinger 2001-2017
</metadata>
<g transform="translate(0.000000,140.000000) scale(0.100000,-0.100000)"
fill="#000000" stroke="none">
<path d="M76 1268 c15 -18 128 -154 251 -302 l224 -269 -24 -26 c-13 -14 -68
-80 -123 -146 -54 -66 -101 -122 -104 -125 -3 -3 -48 -57 -100 -120 -52 -63
-107 -128 -122 -145 l-28 -30 142 -3 c78 -1 147 -1 154 2 10 4 220 251 431
509 l73 88 -123 147 c-67 81 -124 149 -127 152 -3 3 -25 30 -50 60 -25 30 -47
57 -50 60 -3 3 -38 44 -78 93 l-73 87 -150 0 -151 0 28 -32z"/>
<path d="M978 1213 c-40 -49 -77 -93 -83 -99 -5 -6 -19 -22 -30 -35 -11 -13
-42 -50 -68 -81 l-49 -57 77 -90 76 -91 217 261 c119 143 219 265 220 270 2 5
-57 9 -142 9 l-145 0 -73 -87z"/>
<path d="M826 550 l-75 -91 126 -152 c69 -84 137 -164 151 -179 l26 -28 148 0
149 0 -123 148 c-68 81 -125 149 -128 152 -3 3 -49 58 -102 123 l-97 117 -75
-90z"/>
</g>
</svg>
